<?xml version="1.0" standalone="no"?>
<!DOCTYPE svg PUBLIC "-//W3C//DTD SVG 20010904//EN"
 "http://www.w3.org/TR/2001/REC-SVG-20010904/DTD/svg10.dtd">
<svg version="1.0" xmlns="http://www.w3.org/2000/svg"
 width="512.000000pt" height="512.000000pt" viewBox="0 0 512.000000 512.000000"
 preserveAspectRatio="xMidYMid meet">
<metadata>
Created by potrace 1.14, written by Peter Selinger 2001-2017
</metadata>
<g transform="translate(0.000000,512.000000) scale(0.100000,-0.100000)"
fill="#000000" stroke="none">
<path d="M1430 4317 c-79 -42 -104 -82 -116 -182 -3 -33 -8 -62 -9 -65 -2 -3
-7 -33 -10 -65 -4 -33 -9 -67 -10 -77 -2 -9 -6 -38 -10 -65 -11 -80 -15 -107
-20 -133 -2 -14 -7 -47 -10 -75 -12 -97 -16 -122 -45 -320 -16 -111 -33 -226
-37 -255 -10 -73 -10 -330 0 -403 24 -172 108 -377 227 -556 90 -134 289 -328
390 -381 14 -7 27 -16 30 -20 11 -17 215 -112 297 -139 98 -32 199 -56 250
-59 21 -2 22 -5 23 -187 l1 -185 -178 0 -179 0 1 -175 c0 -96 2 -175 5 -176 3
-1 238 -2 523 -3 337 -1 521 3 525 9 4 6 7 85 7 178 l1 167 -178 0 -178 0 0
185 c0 141 3 185 13 186 103 5 289 62 444 136 159 74 376 253 490 403 108 141
196 319 243 494 30 108 30 110 35 286 4 145 -10 290 -48 525 -3 17 -9 55 -12
85 -4 30 -9 62 -10 70 -5 29 -15 95 -20 140 -3 25 -8 56 -10 70 -3 14 -7 45
-10 70 -3 25 -7 52 -10 60 -2 8 -7 44 -10 80 -4 36 -8 67 -10 70 -2 3 -6 30
-9 60 -14 113 -27 161 -57 194 -61 71 22 66 -1196 66 -888 0 -1103 -3 -1123
-13z m2030 -357 c4 -8 11 -42 15 -75 3 -32 8 -62 10 -65 1 -3 6 -34 9 -70 4
-36 9 -72 11 -80 2 -8 6 -33 9 -55 3 -22 14 -105 25 -185 12 -79 21 -148 21
-152 0 -5 -452 -8 -1005 -8 -797 0 -1005 3 -1005 13 0 6 14 104 30 217 33 225
35 242 45 315 11 81 15 109 20 135 l6 26 900 -1 c790 0 901 -2 909 -15z m144
-1110 c-1 -147 -33 -270 -105 -410 -48 -91 -55 -103 -99 -160 -178 -231 -432
-378 -715 -415 -53 -7 -216 -8 -250 -1 -11 2 -40 7 -65 11 -312 48 -614 274
-764 572 -24 49 -72 169 -74 186 0 4 -6 31 -12 60 -10 51 -21 213 -14 220 2 2
475 3 1051 2 l1048 0 -1 -65z"/>
</g>
</svg>
